<?xml version="1.0" encoding="UTF-8"?>
<svg xmlns="http://www.w3.org/2000/svg" xmlns:xlink="http://www.w3.org/1999/xlink" width="16px" height="16px" viewBox="0 0 16 16" version="1.1">
<g id="surface1">
<path style=" stroke:none;fill-rule:nonzero;fill:rgb(95.294118%,38.039216%,5.882353%);fill-opacity:1;" d="M 13.199219 4.164062 C 12.984375 3.527344 12.257812 1.898438 10.835938 3.386719 C 9.269531 5.023438 12.402344 8.015625 13.125 8.285156 C 13.273438 8.675781 17.289062 5.207031 15.558594 3.394531 C 14.144531 1.917969 13.417969 3.519531 13.199219 4.164062 Z M 13.199219 4.164062 "/>
<path style=" stroke:none;fill-rule:evenodd;fill:rgb(90.980392%,56.862745%,23.921569%);fill-opacity:1;" d="M 2.941406 0.0742188 C 2.875 0.0234375 2.808594 0 2.742188 0 C 2.675781 0.00390625 2.609375 0.03125 2.554688 0.0820312 C 2.4375 0.183594 2.339844 0.371094 2.253906 0.613281 C 2.078125 1.097656 1.933594 1.839844 1.820312 2.6875 C 1.589844 4.363281 1.460938 6.472656 1.386719 7.867188 C 0.390625 11.308594 0.105469 13.074219 0 15.980469 L 0.09375 15.984375 L 6.40625 15.984375 L 6.40625 15.867188 L 6.410156 15.867188 C 6.285156 15.632812 6.21875 15.4375 6.207031 15.277344 C 6.199219 15.121094 6.242188 14.988281 6.339844 14.871094 C 6.445312 14.75 6.609375 14.640625 6.847656 14.539062 C 7.085938 14.441406 7.386719 14.347656 7.757812 14.257812 C 8.371094 14.164062 8.96875 14.164062 9.515625 14.1875 C 9.730469 14.195312 9.933594 14.210938 10.132812 14.222656 C 10.441406 14.242188 10.730469 14.261719 10.984375 14.261719 C 11.097656 14.261719 11.238281 14.207031 11.394531 14.117188 C 11.546875 14.027344 11.722656 13.898438 11.898438 13.742188 C 12.257812 13.4375 12.644531 13.023438 12.972656 12.597656 C 13.296875 12.171875 13.566406 11.730469 13.683594 11.371094 C 13.742188 11.1875 13.765625 11.019531 13.734375 10.875 C 13.699219 10.730469 13.605469 10.628906 13.457031 10.578125 L 13.457031 10.582031 C 13.453125 10.582031 13.449219 10.578125 13.445312 10.578125 C 13.421875 10.574219 13.386719 10.5625 13.339844 10.554688 C 13.25 10.53125 13.117188 10.496094 12.960938 10.453125 C 12.644531 10.363281 12.214844 10.238281 11.769531 10.078125 C 11.324219 9.921875 10.863281 9.730469 10.480469 9.519531 C 10.285156 9.414062 10.113281 9.300781 9.972656 9.1875 C 9.832031 9.070312 9.722656 8.953125 9.65625 8.835938 C 9.414062 8.402344 9.144531 7.753906 8.886719 7.128906 C 8.847656 7.035156 8.808594 6.941406 8.769531 6.847656 C 8.625 6.496094 8.480469 6.164062 8.351562 5.894531 C 8.285156 5.757812 8.222656 5.640625 8.164062 5.542969 C 8.117188 5.472656 8.074219 5.414062 8.035156 5.367188 C 8.0625 5.304688 8.085938 5.226562 8.101562 5.140625 C 8.132812 4.960938 8.144531 4.71875 8.136719 4.445312 C 8.125 3.898438 8.042969 3.199219 7.917969 2.535156 C 7.796875 1.875 7.632812 1.242188 7.457031 0.828125 C 7.371094 0.625 7.277344 0.464844 7.179688 0.386719 C 7.128906 0.34375 7.074219 0.324219 7.015625 0.332031 C 6.957031 0.34375 6.90625 0.378906 6.859375 0.441406 C 6.6875 0.667969 6.535156 1.003906 6.398438 1.382812 C 6.285156 1.679688 6.179688 2.003906 6.078125 2.332031 C 6.046875 2.421875 6.019531 2.507812 5.988281 2.597656 C 5.855469 3.011719 5.71875 3.40625 5.574219 3.726562 C 5.429688 4.042969 5.277344 4.273438 5.109375 4.382812 L 4.898438 4.382812 C 4.75 3.949219 4.613281 3.535156 4.488281 3.140625 L 4.480469 3.121094 C 4.335938 2.667969 4.199219 2.242188 4.054688 1.855469 C 3.765625 1.082031 3.441406 0.460938 2.941406 0.0742188 Z M 13.585938 10.957031 C 13.644531 10.738281 12.933594 10.867188 12.28125 10.984375 C 11.925781 11.050781 11.589844 11.109375 11.402344 11.109375 C 10.878906 11.109375 12.632812 11.929688 12.765625 11.8125 C 12.792969 11.789062 12.835938 11.753906 12.894531 11.707031 C 13.117188 11.535156 13.519531 11.222656 13.585938 10.957031 Z M 13.585938 10.957031 "/>
<path style=" stroke:none;fill-rule:evenodd;fill:rgb(100%,100%,100%);fill-opacity:0.8;" d="M 13.746094 11.054688 C 13.679688 11.058594 13.609375 11.0625 13.539062 11.070312 C 13.410156 11.304688 13.085938 11.558594 12.894531 11.707031 C 12.835938 11.753906 12.792969 11.789062 12.765625 11.8125 C 12.664062 11.902344 11.574219 11.425781 11.347656 11.210938 C 10.992188 11.230469 10.664062 11.242188 10.363281 11.242188 C 6.035156 11.242188 2.527344 12.742188 2.527344 14.59375 C 2.527344 14.609375 2.527344 14.625 2.527344 14.640625 C 2.527344 14.980469 2.527344 15.445312 2.550781 15.984375 L 6.40625 15.984375 L 6.40625 15.867188 L 6.410156 15.867188 C 6.285156 15.632812 6.21875 15.4375 6.207031 15.277344 C 6.199219 15.121094 6.242188 14.988281 6.339844 14.871094 C 6.445312 14.75 6.609375 14.640625 6.847656 14.539062 C 7.085938 14.441406 7.386719 14.347656 7.757812 14.257812 C 8.371094 14.164062 8.96875 14.164062 9.515625 14.1875 C 9.730469 14.195312 9.933594 14.210938 10.132812 14.222656 C 10.441406 14.242188 10.730469 14.261719 10.984375 14.261719 C 11.097656 14.261719 11.238281 14.207031 11.394531 14.117188 C 11.546875 14.027344 11.722656 13.898438 11.898438 13.742188 C 12.257812 13.4375 12.644531 13.023438 12.972656 12.597656 C 13.296875 12.171875 13.566406 11.730469 13.683594 11.371094 C 13.71875 11.261719 13.742188 11.152344 13.746094 11.054688 Z M 13.746094 11.054688 "/>
<path style=" stroke:none;fill-rule:evenodd;fill:rgb(0%,0%,0%);fill-opacity:1;" d="M 1.632812 4.34375 C 1.6875 3.773438 1.746094 3.207031 1.820312 2.6875 C 1.933594 1.839844 2.078125 1.097656 2.253906 0.613281 C 2.339844 0.371094 2.4375 0.183594 2.554688 0.0820312 C 2.609375 0.03125 2.675781 0.00390625 2.742188 0 C 2.808594 0 2.875 0.0234375 2.941406 0.0742188 C 3.441406 0.460938 3.765625 1.082031 4.054688 1.855469 C 4.191406 2.214844 4.320312 2.613281 4.453125 3.035156 C 3.785156 3.746094 2.480469 4.300781 1.632812 4.34375 Z M 1.632812 4.34375 "/>
<path style=" stroke:none;fill-rule:evenodd;fill:rgb(76.862745%,47.843137%,20%);fill-opacity:1;" d="M 5.140625 4.359375 C 5.765625 4.445312 6.664062 4.804688 8.035156 5.363281 C 8.066406 5.300781 8.085938 5.226562 8.101562 5.140625 C 8.132812 4.960938 8.144531 4.71875 8.136719 4.445312 C 8.125 3.898438 8.042969 3.199219 7.917969 2.535156 C 7.796875 1.875 7.632812 1.242188 7.457031 0.828125 C 7.371094 0.625 7.277344 0.464844 7.179688 0.386719 C 7.128906 0.34375 7.074219 0.324219 7.015625 0.332031 C 6.957031 0.34375 6.90625 0.378906 6.859375 0.441406 C 6.6875 0.667969 6.535156 1.003906 6.398438 1.382812 C 6.285156 1.679688 6.179688 2.003906 6.078125 2.332031 C 6.046875 2.421875 6.019531 2.507812 5.988281 2.597656 C 5.855469 3.011719 5.71875 3.40625 5.574219 3.726562 C 5.4375 4.023438 5.292969 4.246094 5.140625 4.359375 Z M 5.140625 4.359375 "/>
<path style=" stroke:none;fill-rule:evenodd;fill:rgb(0%,0%,0%);fill-opacity:1;" d="M 8.097656 3.800781 C 7.996094 3.816406 7.882812 3.828125 7.757812 3.828125 C 7.230469 3.828125 6.421875 3.476562 5.863281 2.976562 C 5.90625 2.855469 5.949219 2.726562 5.988281 2.597656 C 6.019531 2.511719 6.046875 2.421875 6.078125 2.332031 C 6.179688 2.003906 6.285156 1.679688 6.398438 1.382812 C 6.535156 1.003906 6.6875 0.667969 6.859375 0.441406 C 6.90625 0.378906 6.957031 0.34375 7.015625 0.332031 C 7.074219 0.324219 7.128906 0.34375 7.179688 0.386719 C 7.277344 0.464844 7.371094 0.625 7.457031 0.828125 C 7.632812 1.242188 7.796875 1.875 7.917969 2.535156 C 7.996094 2.960938 8.058594 3.398438 8.097656 3.800781 Z M 8.097656 3.800781 "/>
<path style=" stroke:none;fill-rule:nonzero;fill:rgb(0%,0%,0%);fill-opacity:1;" d="M 12.742188 11.957031 C 12.710938 11.992188 12.667969 12 12.628906 11.980469 L 11.28125 11.304688 C 11.167969 11.25 11.191406 11.046875 11.3125 11.03125 L 13.5625 10.769531 C 13.675781 10.757812 13.734375 10.929688 13.648438 11.019531 Z M 12.742188 11.957031 "/>
<path style="fill-rule:nonzero;fill:rgb(0%,0%,0%);fill-opacity:1;stroke-width:4;stroke-linecap:round;stroke-linejoin:miter;stroke:rgb(0%,0%,0%);stroke-opacity:1;stroke-miterlimit:4;" d="M 419.909668 394.171631 C 443.465576 398.60791 397.173096 365.089355 383.449219 351.780518 C 369.725342 338.307373 327.529541 399.758057 327.529541 399.758057 C 327.529541 399.758057 396.35376 389.571045 419.909668 394.171631 Z M 419.909668 394.171631 " transform="matrix(0.0190703,0,0,0.0237741,0,0)"/>
</g>
</svg>
